HIERARCHY
ROOT hip
{
	OFFSET 0.000000 0.000000 0.000000 
	CHANNELS 6 Xposition Yposition Zposition Xrotation Zrotation Yrotation
	JOINT abdomen
	{
		OFFSET 0.000000 3.402643 0.000000 
		CHANNELS 3 Xrotation Zrotation Yrotation
		JOINT chest
		{
			OFFSET 0.000000 8.438565 -0.680529 
			CHANNELS 3 Xrotation Zrotation Yrotation
			JOINT neck
			{
				OFFSET 0.000000 10.207942 -0.272212 
				CHANNELS 3 Xrotation Zrotation Yrotation
				JOINT head
				{
					OFFSET 0.000000 3.130431 0.000000 
					CHANNELS 3 Xrotation Zrotation Yrotation
					End Site
					{
						OFFSET 0.000000 3.130435 0.000000 
					}
				}
			}
			JOINT lCollar
			{
				OFFSET 3.470700 6.669187 -0.816635 
				CHANNELS 3 Yrotation Zrotation Xrotation
				JOINT lShldr
				{
					OFFSET 3.198488 0.000000 0.000000 
					CHANNELS 3 Zrotation Yrotation Xrotation
					JOINT lForeArm
					{
						OFFSET 10.139888 0.000000 0.000000 
						CHANNELS 3 Yrotation Zrotation Xrotation
						JOINT lHand
						{
							OFFSET 8.370511 0.000000 0.000000 
							CHANNELS 3 Zrotation Yrotation Xrotation
							End Site
							{
								OFFSET 4.083176 0.000000 0.000000 
							}
						}
					}
				}
			}
			JOINT rCollar
			{
				OFFSET -3.470700 6.669187 -0.816635 
				CHANNELS 3 Yrotation Zrotation Xrotation
				JOINT rShldr
				{
					OFFSET -3.198488 0.000000 0.000000 
					CHANNELS 3 Zrotation Yrotation Xrotation
					JOINT rForeArm
					{
						OFFSET -10.139888 0.000000 0.000000 
						CHANNELS 3 Yrotation Zrotation Xrotation
						JOINT rHand
						{
							OFFSET -8.370511 0.000000 0.000000 
							CHANNELS 3 Zrotation Yrotation Xrotation
							End Site
							{
								OFFSET -4.083176 0.000000 0.000000 
							}
						}
					}
				}
			}
		}
	}
	JOINT lThigh
	{
		OFFSET 5.308129 -1.633274 1.361059 
		CHANNELS 3 Xrotation Zrotation Yrotation
		JOINT lShin
		{
			OFFSET -2.041588 -20.007561 0.000000 
			CHANNELS 3 Xrotation Zrotation Yrotation
			JOINT lFoot
			{
				OFFSET 0.000000 -19.190928 -1.224953 
				CHANNELS 3 Xrotation Yrotation Zrotation
				End Site
				{
					OFFSET 0.000000 -2.449906 4.627600 
				}
			}
		}
	}
	JOINT rThigh
	{
		OFFSET -5.308129 -1.633274 1.361059 
		CHANNELS 3 Xrotation Zrotation Yrotation
		JOINT rShin
		{
			OFFSET 2.041588 -20.007561 0.000000 
			CHANNELS 3 Xrotation Zrotation Yrotation
			JOINT rFoot
			{
				OFFSET 0.000000 -19.190928 -1.224953 
				CHANNELS 3 Xrotation Yrotation Zrotation
				End Site
				{
					OFFSET 0.000000 -2.449906 4.627600 
				}
			}
		}
	}
}
MOTION
Frames: 6
Frame Time: 0.016667
-0.324261 52.241230 0.138893 -9.711004 3.968038 24.104679 24.818502 0.680528 1.049444 -2.477206 2.284487 -2.100453 -4.344442 -5.336478 0.174101 13.387142 -0.141237 -25.322355 2.606664 -2.177366 -0.110186 -45.615612 -18.688515 9.625397 -73.487442 -5.000000 6.290976 -23.759953 -6.112319 40.879120 -5.669758 3.474459 -0.177742 57.700306 16.965960 15.818752 80.568138 -5.000000 -2.227825 5.683990 -19.504768 -15.836183 7.050825 22.421030 1.325460 5.418018 -6.042764 -0.840382 -2.266881 -8.145504 -19.355495 24.757153 -8.691056 -20.702734 4.031837 1.822632 0.116258 -11.205208 -7.792004 10.092174 
-0.320449 52.247681 0.163241 -9.648548 3.889748 23.739681 24.748854 0.656439 1.008430 -2.622411 2.216138 -2.100453 -4.028402 -5.371274 0.140023 13.725233 -0.115195 -24.853580 3.154075 -1.884788 -0.095073 -44.938015 -18.531286 9.335557 -74.258453 -5.000000 6.052610 -23.732979 -5.892168 40.846176 -6.461957 3.074604 -0.157039 57.713287 16.906713 15.658395 81.370110 -5.000000 -1.829007 5.983475 -19.695501 -16.338634 7.293052 22.424931 1.724138 5.227790 -6.028077 -0.832967 -2.184441 -8.099525 -19.377628 24.624699 -8.769936 -20.402813 3.980139 1.819042 0.103736 -11.156552 -7.742399 10.075149 
-0.316640 52.254131 0.187586 -9.588905 3.801842 23.375383 24.669909 0.638205 0.980416 -2.767594 2.147790 -2.110217 -3.711391 -5.397867 0.094875 14.073507 -0.088952 -24.375046 3.701395 -1.601962 -0.080187 -44.247002 -18.371439 9.034364 -75.032135 -5.000000 5.808801 -23.697817 -5.682389 40.803143 -7.254035 2.664995 -0.135824 57.730194 16.844526 15.513798 82.159988 -5.000000 -1.467618 6.283824 -19.873404 -16.844837 7.528607 22.428261 2.144488 5.042905 -6.019031 -0.806180 -2.145625 -8.059023 -19.418837 24.507566 -8.838170 -20.140253 3.907298 1.811949 0.129122 -11.128876 -7.694302 10.078325 
-0.312959 52.260582 0.209358 -9.520205 3.714047 22.981258 24.590845 0.603790 0.966898 -2.875134 2.108713 -2.149262 -3.445028 -5.440858 0.070953 14.429855 -0.035727 -23.847666 4.170410 -1.406910 -0.070142 -43.496437 -18.001749 8.633909 -75.869179 -5.000000 5.517880 -23.668682 -5.493442 40.651470 -7.977230 2.430933 -0.123697 57.643402 16.717236 15.314660 82.995979 -5.000000 -1.150644 6.533930 -20.033478 -17.270763 7.732935 22.420504 2.530092 4.878718 -6.003197 -0.742020 -2.100902 -8.033723 -19.424526 24.349213 -8.925483 -19.822439 3.836072 1.802961 0.124929 -11.079992 -7.643322 10.039899 
-0.309277 52.267033 0.231127 -9.443590 3.616233 22.596313 24.502090 0.582451 0.947910 -2.982635 2.069636 -2.188308 -3.177705 -5.494957 0.039802 14.800823 0.008968 -23.320313 4.629625 -1.211858 -0.060095 -42.737892 -17.626217 8.238662 -76.708519 -5.000000 5.226880 -23.646715 -5.311653 40.502872 -8.700376 2.196871 -0.111568 57.558422 16.594629 15.124067 83.823235 -5.000000 -0.869129 6.776885 -20.194099 -17.690292 7.947284 22.417610 2.937622 4.722788 -6.003222 -0.698662 -2.095331 -7.987169 -19.436041 24.217367 -9.023657 -19.517645 3.768840 1.830521 0.121683 -11.016870 -7.536354 10.050883 
-0.305754 52.272705 0.249802 -9.379655 3.508861 22.202316 24.423498 0.572645 0.923328 -3.070820 2.040321 -2.217588 -2.930781 -5.518633 0.013886 15.189927 0.036004 -22.822271 5.000830 -1.104579 -0.054569 -41.954842 -17.094131 7.798370 -77.556801 -5.000000 4.910420 -23.654457 -5.167922 40.331264 -9.354917 2.070087 -0.104998 57.428013 16.371775 14.888288 84.671272 -5.000000 -0.631925 6.981452 -20.334736 -18.045055 8.171812 22.429358 3.378496 4.555562 -5.984422 -0.683281 -2.120233 -7.954626 -19.479359 24.057743 -9.110843 -19.209513 3.708247 1.821100 0.118339 -10.971217 -7.436310 10.036881 
